<svg width="1" height="1" viewBox="0 0 1 1" fill="none" xmlns="http://www.w3.org/2000/svg">
    <path
        d="M1 0.45974C1 0.446061 0.997306 0.432515 0.992071 0.419877C0.986836 0.407239 0.979163 0.395756 0.96949 0.386083C0.959818 0.37641 0.948334 0.368737 0.935696 0.363503C0.923058 0.358268 0.909513 0.355573 0.895833 0.355573H0.632875L0.628146 0.354427L0.624453 0.351257L0.622604 0.346757L0.623 0.341907C0.646003 0.283608 0.653469 0.220333 0.644667 0.158282C0.620167 0.0709899 0.56825 0.0457816 0.527625 0.0514066C0.507672 0.0548014 0.489637 0.0653418 0.476886 0.0810599C0.464135 0.0967779 0.457541 0.116599 0.458333 0.136823C0.458333 0.25124 0.369625 0.37624 0.29025 0.431032C0.287471 0.43295 0.2852 0.435514 0.283632 0.438505C0.282064 0.441495 0.281247 0.444822 0.28125 0.448198V0.869698C0.281249 0.874537 0.282933 0.879226 0.286012 0.882959C0.289091 0.886692 0.293374 0.889237 0.298125 0.890157C0.313 0.893032 0.3265 0.895782 0.33925 0.89849C0.395316 0.911847 0.452782 0.918436 0.510417 0.918115H0.78125C0.862792 0.918115 0.875 0.872282 0.875 0.845198C0.875008 0.830833 0.8717 0.816659 0.865333 0.803782C0.88734 0.792632 0.90406 0.773251 0.911861 0.749846C0.919663 0.726442 0.917916 0.700905 0.907 0.678782C0.92244 0.670938 0.935408 0.658973 0.944469 0.644214C0.953529 0.629454 0.958328 0.612475 0.958333 0.595157C0.958361 0.579548 0.954448 0.564185 0.946958 0.55049C0.963051 0.541424 0.976445 0.528243 0.985765 0.512296C0.995086 0.496349 0.999999 0.478211 1 0.45974Z"
        fill="black" />
    <path
        d="M0.21875 0.449323C0.21875 0.438273 0.21436 0.427674 0.206546 0.41986C0.198732 0.412046 0.188134 0.407657 0.177083 0.407657H0.0416667C0.030616 0.407657 0.0200179 0.412046 0.0122039 0.41986C0.00438987 0.427674 0 0.438273 0 0.449323V0.907657C0 0.918707 0.00438987 0.929305 0.0122039 0.937119C0.0200179 0.944933 0.030616 0.949323 0.0416667 0.949323H0.177083C0.188134 0.949323 0.198732 0.944933 0.206546 0.937119C0.21436 0.929305 0.21875 0.918707 0.21875 0.907657V0.449323ZM0.15625 0.83474C0.15625 0.840921 0.154417 0.846962 0.150983 0.852102C0.14755 0.857241 0.142669 0.861246 0.136959 0.863611C0.131249 0.865976 0.124965 0.866595 0.118903 0.865389C0.112842 0.864184 0.107273 0.861207 0.102903 0.856837C0.0985325 0.852467 0.0955562 0.846898 0.0943505 0.840836C0.0931447 0.834775 0.0937635 0.828491 0.0961288 0.822781C0.098494 0.817071 0.102499 0.81219 0.107638 0.808757C0.112777 0.805323 0.118819 0.80349 0.125 0.80349C0.133288 0.80349 0.141237 0.806782 0.147097 0.812643C0.152958 0.818503 0.15625 0.826452 0.15625 0.83474Z"
        fill="black" />
</svg>
    